<svg xmlns="http://www.w3.org/2000/svg" width="89" height="90" fill="none" viewBox="0 0 89 90"><path fill="#afaba1" d="M67.207.793a1 1 0 0 0-1.414 0l-6.364 6.364a1 1 0 0 0 1.414 1.414L66.5 2.914l5.657 5.657a1 1 0 1 0 1.414-1.414zM1.046 67.999q.976-.044 2.005-.125l-.157-1.994q-.996.078-1.94.121zm5.991-.556a78 78 0 0 0 3.962-.646l-.372-1.965a76 76 0 0 1-3.86.63zm7.885-1.489a84 84 0 0 0 3.872-1.03l-.56-1.92a82 82 0 0 1-3.78 1.006zm7.692-2.245a82 82 0 0 0 3.763-1.4l-.744-1.857a80 80 0 0 1-3.67 1.367zm7.444-2.983a76 76 0 0 0 3.6-1.773l-.93-1.77a74 74 0 0 1-3.507 1.726zm7.106-3.74q1.711-1.022 3.385-2.158l-1.123-1.655a68 68 0 0 1-3.289 2.097zm6.642-4.514a64 64 0 0 0 3.108-2.555l-1.318-1.504a62 62 0 0 1-3.011 2.475zm6.05-5.306a60 60 0 0 0 2.751-2.94l-1.505-1.316q-1.291 1.475-2.66 2.84zm5.296-6.06a58 58 0 0 0 2.322-3.291l-1.673-1.095a56 56 0 0 1-2.242 3.177zm4.41-6.738a58 58 0 0 0 1.84-3.585l-1.809-.851a56 56 0 0 1-1.778 3.46zm3.43-7.287q.723-1.847 1.339-3.797l-1.907-.603a59 59 0 0 1-1.294 3.674zm2.428-7.67q.476-1.918.848-3.928l-1.967-.364a65 65 0 0 1-.822 3.81zm1.465-7.894a76 76 0 0 0 .398-3.988l-1.995-.146a74 74 0 0 1-.387 3.882zm.591-7.988Q67.5 2.524 67.5 1.5h-2q0 1-.023 1.981zM35.29 85.434l.082-.375-.3-.392a65 65 0 0 1-.855-2.866q-.363-1.411-.736-2.906l-.252-.953a17 17 0 0 0-.25-.985.8.8 0 0 1-.139-.129.8.8 0 0 1-.13-.227 7 7 0 0 0-.15-.977 12 12 0 0 0-.195-.848q-.14-.495-.265-1.004a5.7 5.7 0 0 1-.106-1.106l-.026-.285.213-.149a1 1 0 0 1 .098-.174.8.8 0 0 1 .184-.218l.368-.218q.364-.767.388-1.647.027-.912-.112-2.022l-.042-.486.438-.063q.135-.022.377-.134t.518-.223a10 10 0 0 1 .916-.405q.449-.194.812-.164l.225.086q.202.166.357.312l.343.262q.39.315.76.647.357.312.753.745.392.282.78.598.393.283.767.58.528.444 1.044.837.5.375 1.042.653.18-.15.23-.163.14-.271.41-.53l.218-.215.254.154a1 1 0 0 0 .18.032q.099.008.216.002.302-.225.518-.223.218-.031.384-.017l.165.014q.083-.01.135-.022l.428-.147.108.491q.12.543.011 1.249-.091.69-.396 1.347.141.094.232.202.108.092.265.206.375.297.743.661.372.33.665.788.214.617.281 1.204.07.555-.014 1.147-.08.558-.326 1.103a3.1 3.1 0 0 1-.693.923q-.296.158-.482.192-.168.019-.318.023a1.5 1.5 0 0 0-.354.054l-.323.089-.155-.33q-.067-.188-.23-.235-.144-.061-.492-.075-.117.007-.216-.001a2 2 0 0 0-.247-.038l-.706-.11.455-.66q.417-.596.414-.962-.017-.384-.537-.927-.523.288-.75.602-.24.296-.467.609a34 34 0 0 1-.64.877 6.3 6.3 0 0 1-.798.798 5.4 5.4 0 0 1-.69.49l-.212.149-.22-.152q-.03-.035-.115-.026a1 1 0 0 0-.147-.03 6 6 0 0 1-.457-.104q-.276-.074-.431-.403a1.2 1.2 0 0 1-.492-.29q.05.203.117.392l.14.311.125.293-.202.233q-.006.066.019.168.042.086.09.107l.238.137-.043.312a.4.4 0 0 1-.014.165 1 1 0 0 0-.029.147q.13.228.21.467.098.225.177.464.153.363.29.706.154.33.382.598l.125.293a.75.75 0 0 1-.051.412 3 3 0 0 1-.145.337 1 1 0 0 0-.13.355l.143.278-.239.263a8 8 0 0 1-.28.359q-.075.093-.2.199l-.247.179a5 5 0 0 0-.63-.02 1.5 1.5 0 0 0-.486.042l-.229-.053a1.2 1.2 0 0 1-.301-.175 3 3 0 0 0-.265-.205q-.233-.202-.38-.232zm1.782-9.48q.052.57.152 1.161a2 2 0 0 1 .217-.214 2 2 0 0 0 .236-.23q.596-.565 1.088-1.072t1.013-1.162a41 41 0 0 0-1.456-1.071q-.75-.563-1.538-1.094l.062.254q-.039.862.017 1.765.057.903.212 1.63zm22.972-14.026a4.2 4.2 0 0 1-.115 2.152q-.35 1.002-.95 1.999-.615.98-1.365 1.98a17 17 0 0 0-1.305 2.052 5 5 0 0 0-.745.752q-.146.155-.277.326-.146.155-.328.338-.087.043-.06.112.014.051.008.117a4 4 0 0 1-.51.522l-.394.333q-.216.18-.403.432-.154.252-.348.386-1.404 1.062-2.915.835-1.508-.26-2.928-1.76-.057-.105-.127-.078a.4.4 0 0 1-.116.007q-.151-.18-.222-.335-.052-.17-.254-.337a16 16 0 0 1-.486-2.719 8.9 8.9 0 0 1 .145-2.699q.034-.213.034-.396-.002-.184-.02-.351-.002-.183.045-.346a.8.8 0 0 1 .163-.352 6.3 6.3 0 0 1 .23-1.544q.217-.796.518-1.602.285-.825.569-1.616.286-.824.403-1.629.273-.076.332-.188a.37.37 0 0 1 .197-.166q.352.162.658.089.324-.09.644-.146.324-.088.657-.094.333-.005.667.173-.108.09-.032.18.08.056.19.116a.32.32 0 0 1 .154.146q.06.072-.065.178.094.075.198.016.108-.09.183-.001.075.09.068.189.009.083.15.179-.161.535-.427 1.128-.249.577-.52 1.237-.27.625-.547 1.35-.275.693-.456 1.459-.18.766-.304 1.637a18 18 0 0 0-.227 3.474q.012.85.149 1.592.111.06.192.083a.34.34 0 0 1 .195.05q.604-.448 1.057-.892a4.1 4.1 0 0 1 1.048-.793.23.23 0 0 0-.019-.168.21.21 0 0 1 0-.183 19 19 0 0 0 1.625-1.925q.681-.975 1.383-1.996-.188.067-.345.138a2 2 0 0 0-.29.091q-.165-.014-.12-.143.046-.162.057-.294a1.7 1.7 0 0 1-.714-.01q-.325-.095-.663-.422a.36.36 0 0 0-.074-.306.3.3 0 0 0-.274-.106q-.086.042-.09.075a.3.3 0 0 0 .01.084q.03.036.043.087-.003.033-.105.058a1 1 0 0 1-.155-.33 1 1 0 0 0-.104-.34l.54-1.868q.318-.023.756-.086.422-.081.878-.159.458-.111.932-.204.476-.126.899-.207.34-.104.69-.091.348.012.693.059l.66.055q.35.013.705-.073.161.263.336.36.174.099.338.329m3.812.155q.543.462.64.902.113.426-.053.81a1.74 1.74 0 0 1-.475.71 4 4 0 0 1-.711.538 3.6 3.6 0 0 1-.852-.355 19 19 0 0 1-.918-.543q-.474-.306-.914-.61l-.75-.562a2 2 0 0 0-.301-.574 6 6 0 0 0-.448-.603q-.225-.301-.466-.588-.24-.32-.43-.619-.51-.858-.852-1.735a12 12 0 0 0-.8-1.747.58.58 0 0 0-.293-.274.55.55 0 0 1-.245-.254q-.042-.087.032-.18a.21.21 0 0 0 .002-.216q-.113-.242-.255-.338-.123-.11-.185-.365a5 5 0 0 0-.133-.593 1.35 1.35 0 0 0-.391-.682q.07-.243.092-.507t.075-.493q.055-.261.16-.502.12-.256.39-.483.293.059.51.243.236.17.453.354.235.17.491.291.24.104.547.03l.302.358q.182.215.38.414.185.183.39.316.207.1.396.033.404 1.132.828 2.216.441 1.068.988 2.08.532.992 1.204 1.897.69.89 1.592 1.631m7.697-4.689q-.365.585-.82 1.245t-1.046 1.159q-.895.756-1.793.747a1.3 1.3 0 0 0-.388-.133l-.228-.052a1.3 1.3 0 0 1-.25-.188 2.6 2.6 0 0 1-.824-.286 4.7 4.7 0 0 1-.754-.529 6 6 0 0 1-.623-.701 5.3 5.3 0 0 1-.449-.786.4.4 0 0 0-.085-.174 5 5 0 0 0-.1-.191 48 48 0 0 1-.326-.677 2.2 2.2 0 0 1-.16-.662.6.6 0 0 1-.303-.358 3 3 0 0 1-.14-.494 82 82 0 0 0-.556-1.494q-.23-.634-.444-1.251a68 68 0 0 0-.772-2.078 24 24 0 0 0-.953-2.11 4 4 0 0 1 .109-.306q.077-.127.134-.205.458-.111 1.024-.313.55-.22.837-.462a.8.8 0 0 1 .3-.008l.132.012q.394.066.749.196.34.111.619.551.028.252-.025.297.212.434.317.776.121.326.226.667.102.375.22.734.12.359.381.814.004.15.029.252.043.086.082.206t.077.273q.04.12.01.267.34.51.457.903.135.377.25.77.224.7.484 1.371.276.655.8 1.348a.6.6 0 0 1 .131-.172l.162-.136a2 2 0 0 1 .421-.263q.296-.741.877-1.323.6-.599 1.21-1.146.252-.21.502-.423.251-.212.436-.429.236-.045.287-.059l.144-.12q.125-.107.23-.164.381.016.653-.062a6 6 0 0 0 .548-.186 5 5 0 0 1 .513-.156 1.7 1.7 0 0 1 .557-.103l.776.664q.261.056.288.124.122.144.11.276l.202.167q-.223.28-.27.442a3 3 0 0 0-.043.313q-.128.138-.2.2l-.107.09a3.4 3.4 0 0 0-.533.603 4.1 4.1 0 0 0-1.14.686q-.196.166-.396.366l-.4.398a7 7 0 0 1-.835.828zm6.697-22.586q.124.111.166.197.046.054.073.123l.106.125q.046.053.187.149.138.926-.167 1.582-.302.623-.784 1.215-.497.573-1.016 1.195a4.6 4.6 0 0 0-.789 1.463.7.7 0 0 0-.43.363q-.104.24-.492.508a.9.9 0 0 1-.132.387 4 4 0 0 0-.247.362.87.87 0 0 1 .341.295q.135.162.28.223.673-.475 1.365-1.182.71-.721 1.428-1.36.094.075.088.141-.02.048.058.105.201-.016.447.02l.463.04q.231.02.432.003a.76.76 0 0 0 .367-.218q.194.082.362.246.173.132.252.37-.12.44-.226.897-.12.438-.306.872a5 5 0 0 1-.436.828 3.4 3.4 0 0 1-.71.722l-.143.12q-.036.03-.153.038-.067.21-.366.401-.281.175-.349.387a1.3 1.3 0 0 0-.544.336q-.268.227-.544.337.031.618.161 1.244.13.627.36 1.261.684-.424 1.063-.775.397-.365.724-.704.314-.356.66-.71.33-.37.918-.837.192-.499.63-.96.441-.496.732-.987a.73.73 0 0 1 .417-.015q.213.036.409.085.198.016.38.015a.45.45 0 0 0 .33-.155.42.42 0 0 1 .24.104q.112.06.206.133.093.075.19.116.1.009.19-.1.231.818.145 1.442a3.1 3.1 0 0 1-.395 1.131q-.311.54-.79 1.098-.463.543-1.02 1.228a.52.52 0 0 1-.283.209 1 1 0 0 0-.281.175q-.336.438-.849.993a10 10 0 0 1-1.118 1.037q-.607.48-1.265.791-.642.328-1.27.276a.86.86 0 0 1-.44-.12q-.186-.15-.459-.073a6 6 0 0 0-.51-.459q-.296-.24-.607-.5a17 17 0 0 1-.618-.551 2.7 2.7 0 0 1-.433-.586 1.55 1.55 0 0 1-.194-.664.69.69 0 0 0-.267-.572q.075-.093.032-.18-.058-.105.082-.193a9 9 0 0 1-.28-.805q-.118-.393-.219-.767-.083-.39-.185-.764a8 8 0 0 0-.26-.854 2.1 2.1 0 0 1-.8-.184 5 5 0 0 1-.63-.419q-.296-.24-.573-.497a5 5 0 0 0-.64-.503q-.047-.42.067-.793.118-.405.332-.77a6 6 0 0 1 .51-.739q.3-.375.617-.796.52-.838.97-1.432.466-.609.943-1.134.48-.558 1.01-1.129.53-.57 1.162-1.349.297.026.44-.096-.064-.221.086-.225.153-.038-.001-.183.435.153.886.141.453-.045.914-.189"/></svg>